<?xml version="1.0" encoding="UTF-8"?>
<svg id="Layer_1" xmlns="http://www.w3.org/2000/svg" version="1.1" viewBox="0 0 131 38">
  <!-- Generator: Adobe Illustrator 29.8.2, SVG Export Plug-In . SVG Version: 2.1.1 Build 3)  -->
  <defs>
    <style>
      .st0 {
        fill: #ffffff;
      }
    </style>
  </defs>
  <g>
    <polygon class="st0" points="15.04 19.9 8.84 10.89 2.51 10.89 8.54 19.9 15.04 19.9"/>
    <polygon class="st0" points="23.26 20.04 13.89 6.35 10.53 10.89 16.73 19.9 10.67 29.1 13.89 33.73 23.26 20.04"/>
    <polygon class="st0" points="26.48 15.4 33.06 15.4 29.81 19.9 23.26 20.04 26.48 15.4"/>
    <polygon class="st0" points="26.76 25.16 33.31 25.16 29.81 19.9 23.26 20.04 26.76 25.16"/>
  </g>
  <g>
    <path class="st0" d="M39.85,14.8l4.04,7.12,4.04-7.12h1.2v10.48h-1.37v-7.73l-3.38,5.97h-.99l-3.38-5.97v7.73h-1.37v-10.48h1.2Z"/>
    <path class="st0" d="M50.42,20.04c0-3.17,2.34-5.48,5.52-5.48s5.53,2.32,5.53,5.48-2.34,5.48-5.52,5.48-5.53-2.32-5.53-5.48ZM60.1,20.04c0-2.47-1.77-4.23-4.16-4.23s-4.15,1.75-4.15,4.23,1.77,4.23,4.16,4.23,4.15-1.77,4.15-4.23Z"/>
    <path class="st0" d="M64.07,14.8l6.35,8.16v-8.23h1.39v10.48h-1.3l-6.35-8.16v8.23h-1.37v-10.48h1.28Z"/>
    <path class="st0" d="M73.08,20.04c0-3.17,2.34-5.48,5.52-5.48s5.53,2.32,5.53,5.48-2.34,5.48-5.52,5.48-5.53-2.32-5.53-5.48ZM82.76,20.04c0-2.47-1.77-4.23-4.16-4.23s-4.15,1.75-4.15,4.23,1.77,4.23,4.16,4.23,4.15-1.77,4.15-4.23Z"/>
    <path class="st0" d="M89.72,14.8c2.32,0,3.62,1.11,3.62,2.9,0,.98-.68,1.94-1.62,2.16,1.19.24,2.12,1.16,2.12,2.46,0,1.81-1.37,2.96-3.73,2.96h-4.67v-10.48h4.28ZM91.96,17.71c0-1.11-.82-1.71-2.28-1.71h-2.87v3.43h2.87c1.45,0,2.28-.6,2.28-1.71ZM92.46,22.33c0-1.15-.92-1.77-2.38-1.77h-3.26v3.53h3.26c1.47,0,2.38-.62,2.38-1.77Z"/>
    <path class="st0" d="M102.01,25.28l-2.38-3.73c-.2.01-.39.03-.59.03h-2.55v3.7h-1.37v-10.48h3.93c2.64,0,4.2,1.32,4.2,3.39,0,1.48-.8,2.58-2.24,3.09l2.63,4h-1.62ZM101.86,18.19c0-1.41-1.11-2.16-2.93-2.16h-2.45v4.32h2.45c1.82,0,2.93-.75,2.93-2.16Z"/>
    <path class="st0" d="M105.97,25.28h-1.37v-10.48h1.37v10.48Z"/>
    <path class="st0" d="M107.26,20.04c0-3.17,2.33-5.48,5.5-5.48,2.71,0,4.58,1.57,5.13,3.77h-1.4c-.44-1.48-1.79-2.5-3.7-2.5-2.41,0-4.15,1.75-4.15,4.21s1.75,4.21,4.15,4.21c1.96,0,3.43-1.15,3.81-2.64h1.4c-.46,2.18-2.46,3.91-5.23,3.91-3.17,0-5.5-2.32-5.5-5.48Z"/>
    <path class="st0" d="M122.51,20.61l-1.88,2.09v2.58h-1.37v-10.48h1.37v6.04l5.38-6.04h1.71l-4.32,4.81,4.62,5.67h-1.75l-3.76-4.67Z"/>
  </g>
</svg>